<svg id="Layer_1" data-name="Layer 1" xmlns="http://www.w3.org/2000/svg" viewBox="0 0 70 70"><title>YouTube Icon</title><polygon points="29.29 41.59 40.71 35 29.29 28.41 29.29 41.59"/><path d="M35,2.05A32.95,32.95,0,1,0,67.95,35,32.95,32.95,0,0,0,35,2.05ZM56,45.57a5.5,5.5,0,0,1-3.88,3.88c-3.43.92-17.16.92-17.16.92s-13.74,0-17.16-.92A5.5,5.5,0,0,1,14,45.57C13,42.15,13,35,13,35s0-7.15.92-10.57a5.5,5.5,0,0,1,3.88-3.88c3.43-.92,17.16-.92,17.16-.92s13.74,0,17.16.92A5.5,5.5,0,0,1,56,24.43C57,27.85,57,35,57,35S57,42.15,56,45.57Z"/></svg>